<mxfile host="app.diagrams.net" modified="2022-02-21T02:17:10.194Z" agent="5.0 (Macintosh; Intel Mac OS X 10_15_7) AppleWebKit/537.36 (KHTML, like Gecko) Chrome/97.0.4692.99 Safari/537.36" etag="xrFl5MhZjXxJvt3nUyCY" version="16.2.4" type="github">
  <diagram id="dmc_jjyUeDHT-t8ddCzY" name="第 1 页">
    <mxGraphModel dx="1532" dy="830" grid="1" gridSize="10" guides="1" tooltips="1" connect="1" arrows="1" fold="1" page="1" pageScale="1" pageWidth="827" pageHeight="1169" math="0" shadow="0">
      <root>
        <mxCell id="0" />
        <mxCell id="1" parent="0" />
        <mxCell id="A0VqJZo3lDfQpK3hPcdt-1" value="&lt;font color=&quot;#ffffff&quot;&gt;创建方案&lt;/font&gt;" style="rounded=0;whiteSpace=wrap;html=1;fillColor=#B266FF;" vertex="1" parent="1">
          <mxGeometry x="90" y="390" width="100" height="50" as="geometry" />
        </mxCell>
        <mxCell id="A0VqJZo3lDfQpK3hPcdt-3" value="" style="endArrow=none;dashed=1;html=1;dashPattern=1 3;strokeWidth=2;rounded=0;fontColor=#FFFFFF;" edge="1" parent="1">
          <mxGeometry width="50" height="50" relative="1" as="geometry">
            <mxPoint x="40" y="360" as="sourcePoint" />
            <mxPoint x="800" y="360" as="targetPoint" />
          </mxGeometry>
        </mxCell>
        <mxCell id="A0VqJZo3lDfQpK3hPcdt-10" value="" style="edgeStyle=orthogonalEdgeStyle;rounded=0;orthogonalLoop=1;jettySize=auto;html=1;fontColor=#FFFFFF;" edge="1" parent="1" source="A0VqJZo3lDfQpK3hPcdt-5" target="A0VqJZo3lDfQpK3hPcdt-9">
          <mxGeometry relative="1" as="geometry" />
        </mxCell>
        <mxCell id="A0VqJZo3lDfQpK3hPcdt-5" value="&lt;font color=&quot;#ffffff&quot;&gt;登入铁橙&lt;/font&gt;" style="rounded=0;whiteSpace=wrap;html=1;fillColor=#B266FF;" vertex="1" parent="1">
          <mxGeometry x="210" y="520" width="100" height="50" as="geometry" />
        </mxCell>
        <mxCell id="A0VqJZo3lDfQpK3hPcdt-14" style="edgeStyle=orthogonalEdgeStyle;rounded=0;orthogonalLoop=1;jettySize=auto;html=1;exitX=0.5;exitY=1;exitDx=0;exitDy=0;entryX=0.5;entryY=0;entryDx=0;entryDy=0;fontColor=#FFFFFF;" edge="1" parent="1" source="A0VqJZo3lDfQpK3hPcdt-9" target="A0VqJZo3lDfQpK3hPcdt-13">
          <mxGeometry relative="1" as="geometry" />
        </mxCell>
        <mxCell id="A0VqJZo3lDfQpK3hPcdt-9" value="&lt;font color=&quot;#ffffff&quot;&gt;提交活动报名&lt;/font&gt;" style="rounded=0;whiteSpace=wrap;html=1;fillColor=#B266FF;" vertex="1" parent="1">
          <mxGeometry x="370" y="520" width="100" height="50" as="geometry" />
        </mxCell>
        <mxCell id="A0VqJZo3lDfQpK3hPcdt-11" value="" style="endArrow=none;dashed=1;html=1;rounded=0;fontColor=#FFFFFF;" edge="1" parent="1">
          <mxGeometry width="50" height="50" relative="1" as="geometry">
            <mxPoint x="40" y="480" as="sourcePoint" />
            <mxPoint x="800" y="480" as="targetPoint" />
          </mxGeometry>
        </mxCell>
        <mxCell id="A0VqJZo3lDfQpK3hPcdt-12" value="" style="endArrow=none;dashed=1;html=1;rounded=0;fontColor=#FFFFFF;" edge="1" parent="1">
          <mxGeometry width="50" height="50" relative="1" as="geometry">
            <mxPoint x="40" y="600" as="sourcePoint" />
            <mxPoint x="800" y="600" as="targetPoint" />
          </mxGeometry>
        </mxCell>
        <mxCell id="A0VqJZo3lDfQpK3hPcdt-13" value="&lt;font color=&quot;#ffffff&quot;&gt;商户运营审批&lt;/font&gt;" style="rounded=0;whiteSpace=wrap;html=1;fillColor=#B266FF;" vertex="1" parent="1">
          <mxGeometry x="370" y="640" width="100" height="50" as="geometry" />
        </mxCell>
        <mxCell id="A0VqJZo3lDfQpK3hPcdt-15" value="&lt;font color=&quot;#000000&quot;&gt;运营人员&lt;/font&gt;" style="text;html=1;strokeColor=none;fillColor=none;align=center;verticalAlign=middle;whiteSpace=wrap;rounded=0;fontColor=#FFFFFF;" vertex="1" parent="1">
          <mxGeometry x="10" y="640" width="60" height="30" as="geometry" />
        </mxCell>
        <mxCell id="A0VqJZo3lDfQpK3hPcdt-16" value="区域BD" style="text;html=1;strokeColor=none;fillColor=none;align=center;verticalAlign=middle;whiteSpace=wrap;rounded=0;fontColor=#000000;" vertex="1" parent="1">
          <mxGeometry x="10" y="530" width="60" height="30" as="geometry" />
        </mxCell>
        <mxCell id="A0VqJZo3lDfQpK3hPcdt-17" value="产品/运营" style="text;html=1;strokeColor=none;fillColor=none;align=center;verticalAlign=middle;whiteSpace=wrap;rounded=0;fontColor=#000000;" vertex="1" parent="1">
          <mxGeometry y="400" width="60" height="30" as="geometry" />
        </mxCell>
        <mxCell id="A0VqJZo3lDfQpK3hPcdt-18" value="" style="endArrow=none;dashed=1;html=1;rounded=0;fontColor=#FFFFFF;" edge="1" parent="1">
          <mxGeometry width="50" height="50" relative="1" as="geometry">
            <mxPoint x="34" y="720" as="sourcePoint" />
            <mxPoint x="794" y="720" as="targetPoint" />
          </mxGeometry>
        </mxCell>
        <mxCell id="A0VqJZo3lDfQpK3hPcdt-20" value="&lt;font color=&quot;#ffffff&quot;&gt;领券&lt;/font&gt;" style="rounded=0;whiteSpace=wrap;html=1;fillColor=#B266FF;" vertex="1" parent="1">
          <mxGeometry x="480" y="760" width="100" height="50" as="geometry" />
        </mxCell>
        <mxCell id="A0VqJZo3lDfQpK3hPcdt-22" value="&lt;font color=&quot;#000000&quot;&gt;用户&lt;/font&gt;" style="text;html=1;strokeColor=none;fillColor=none;align=center;verticalAlign=middle;whiteSpace=wrap;rounded=0;fontColor=#FFFFFF;" vertex="1" parent="1">
          <mxGeometry x="10" y="760" width="60" height="30" as="geometry" />
        </mxCell>
        <mxCell id="A0VqJZo3lDfQpK3hPcdt-23" value="&lt;font color=&quot;#ffffff&quot;&gt;下单&lt;/font&gt;" style="rounded=0;whiteSpace=wrap;html=1;fillColor=#B266FF;" vertex="1" parent="1">
          <mxGeometry x="620" y="760" width="100" height="50" as="geometry" />
        </mxCell>
        <mxCell id="A0VqJZo3lDfQpK3hPcdt-25" value="&lt;font color=&quot;#ffffff&quot;&gt;方案已创建&lt;/font&gt;" style="rounded=1;whiteSpace=wrap;html=1;fillColor=#fa6800;strokeColor=#C73500;fontColor=#000000;" vertex="1" parent="1">
          <mxGeometry x="130" y="430" width="100" height="40" as="geometry" />
        </mxCell>
        <mxCell id="A0VqJZo3lDfQpK3hPcdt-26" value="&lt;font color=&quot;#ffffff&quot;&gt;已登入&lt;/font&gt;" style="rounded=1;whiteSpace=wrap;html=1;fillColor=#fa6800;strokeColor=#C73500;fontColor=#000000;" vertex="1" parent="1">
          <mxGeometry x="230" y="560" width="100" height="40" as="geometry" />
        </mxCell>
        <mxCell id="A0VqJZo3lDfQpK3hPcdt-27" value="&lt;font color=&quot;#ffffff&quot;&gt;已报名&lt;/font&gt;" style="rounded=1;whiteSpace=wrap;html=1;fillColor=#fa6800;strokeColor=#C73500;fontColor=#000000;" vertex="1" parent="1">
          <mxGeometry x="430" y="560" width="100" height="40" as="geometry" />
        </mxCell>
        <mxCell id="A0VqJZo3lDfQpK3hPcdt-28" value="&lt;font color=&quot;#ffffff&quot;&gt;审批通过&lt;/font&gt;" style="rounded=1;whiteSpace=wrap;html=1;fillColor=#fa6800;strokeColor=#C73500;fontColor=#000000;" vertex="1" parent="1">
          <mxGeometry x="414" y="680" width="100" height="40" as="geometry" />
        </mxCell>
        <mxCell id="A0VqJZo3lDfQpK3hPcdt-29" value="&lt;font color=&quot;#ffffff&quot;&gt;已领券&lt;/font&gt;" style="rounded=1;whiteSpace=wrap;html=1;fillColor=#fa6800;strokeColor=#C73500;fontColor=#000000;" vertex="1" parent="1">
          <mxGeometry x="500" y="800" width="100" height="40" as="geometry" />
        </mxCell>
        <mxCell id="A0VqJZo3lDfQpK3hPcdt-30" value="&lt;font color=&quot;#ffffff&quot;&gt;已下单&lt;/font&gt;" style="rounded=1;whiteSpace=wrap;html=1;fillColor=#fa6800;strokeColor=#C73500;fontColor=#000000;" vertex="1" parent="1">
          <mxGeometry x="640" y="800" width="100" height="40" as="geometry" />
        </mxCell>
        <mxCell id="A0VqJZo3lDfQpK3hPcdt-32" value="&lt;font color=&quot;#ffffff&quot;&gt;招商前&lt;/font&gt;" style="rounded=0;whiteSpace=wrap;html=1;fillColor=#B266FF;" vertex="1" parent="1">
          <mxGeometry x="40" y="290" width="140" height="50" as="geometry" />
        </mxCell>
        <mxCell id="A0VqJZo3lDfQpK3hPcdt-33" value="&lt;font color=&quot;#ffffff&quot;&gt;招商中&lt;/font&gt;" style="rounded=0;whiteSpace=wrap;html=1;fillColor=#B266FF;" vertex="1" parent="1">
          <mxGeometry x="300" y="290" width="160" height="50" as="geometry" />
        </mxCell>
        <mxCell id="A0VqJZo3lDfQpK3hPcdt-34" value="&lt;font color=&quot;#ffffff&quot;&gt;招商后&lt;/font&gt;" style="rounded=0;whiteSpace=wrap;html=1;fillColor=#B266FF;" vertex="1" parent="1">
          <mxGeometry x="560" y="290" width="150" height="50" as="geometry" />
        </mxCell>
      </root>
    </mxGraphModel>
  </diagram>
</mxfile>
